<svg width="162" height="162" fill="none" xmlns="http://www.w3.org/2000/svg"><path d="M149.517 51.437a74.598 74.598 0 00-6.746-13.109 75.967 75.967 0 00-9.199-11.56c-6.869-7.1-15.179-12.88-24.317-16.805A75.518 75.518 0 0080.17 3.815a75.748 75.748 0 00-29.316 5.581 74.842 74.842 0 00-13.277 7.037 76.83 76.83 0 00-11.622 9.522 76.077 76.077 0 00-9.522 11.622 75.864 75.864 0 00-7.037 13.277 75.727 75.727 0 00-5.581 29.3c.107 9.997 2.208 19.948 6.148 29.07a74.734 74.734 0 007.222 13.002 75.97 75.97 0 009.582 11.3c3.557 3.434 7.421 6.531 11.56 9.199a75.006 75.006 0 0013.095 6.746 75.705 75.705 0 0014.12 4.063 76.475 76.475 0 0014.597 1.258c.215 0 .43 0 .644-.016a74.474 74.474 0 0027.46-5.458c9.26-3.756 17.571-9.276 24.7-16.405 7.13-7.13 12.649-15.44 16.406-24.701a74.466 74.466 0 005.458-27.076c.015-.338.015-.675.015-1.012.123-9.736-1.686-19.549-5.305-28.687zM77.563 154.132a72.972 72.972 0 01-25.59-5.887c-8.862-3.818-16.896-9.414-23.565-16.314a73.898 73.898 0 01-8.924-11.223 73.04 73.04 0 01-6.531-12.695A73.464 73.464 0 017.8 80.17a73.53 73.53 0 015.72-27.614c3.648-8.708 9.03-16.666 15.715-23.335 6.67-6.67 14.627-12.052 23.335-15.7a72.704 72.704 0 0113.523-4.186 73.666 73.666 0 0114.09-1.518 74.214 74.214 0 0114.153 1.211 75.013 75.013 0 0113.691 3.925 72.996 72.996 0 0112.695 6.532 72.956 72.956 0 0111.223 8.923c6.885 6.67 12.496 14.704 16.314 23.566 3.526 8.156 5.535 17.003 5.903 25.926.598 19.718-6.608 39.619-21.619 54.629-15.117 15.087-35.156 22.293-54.981 21.603z" fill="#000"/><path d="M161.801 80.156c-.107-10.686-2.345-21.327-6.546-31.094a80.051 80.051 0 00-7.713-13.921 82.308 82.308 0 00-10.241-12.113 81.445 81.445 0 00-12.374-9.858 80.813 80.813 0 00-14.013-7.237A81.035 81.035 0 0080.157.199c-.23 0-.46 0-.69.015C69.317.306 59.428 2.268 50.06 6.07c-9.905 4.017-18.797 9.92-26.433 17.555-7.635 7.636-13.538 16.528-17.57 26.448A79.912 79.912 0 00.214 79.068C.2 79.436.2 79.788.2 80.156a81.066 81.066 0 005.734 30.757 80.244 80.244 0 007.237 14.013 81.445 81.445 0 009.858 12.374c7.36 7.589 16.252 13.768 26.034 17.954a81.138 81.138 0 0031.11 6.546 81.081 81.081 0 0031.339-5.979 79.552 79.552 0 0014.182-7.528 81.609 81.609 0 0012.419-10.181 86.37 86.37 0 005.397-5.964 79.178 79.178 0 004.784-6.47 80.5 80.5 0 007.513-14.183 80.816 80.816 0 005.994-31.339zm-137.73-56.1C39.528 8.585 59.858.857 80.174.857c1.027 0 2.07.015 3.097.061a78.678 78.678 0 0127.138 6.271c9.506 4.078 18.122 10.073 25.283 17.464a80.215 80.215 0 019.582 12.02 77.179 77.179 0 017.022 13.615c3.788 9.49 5.658 19.702 5.551 29.867-.108 10.165-2.193 20.3-6.118 29.637-3.91 9.353-9.69 17.893-16.865 25.053-7.16 7.161-15.701 12.941-25.053 16.851a79.841 79.841 0 01-14.505 4.492 80.725 80.725 0 01-15.133 1.625 78.982 78.982 0 01-15.194-1.318 78.764 78.764 0 01-14.673-4.232 77.314 77.314 0 01-13.615-7.022 79.28 79.28 0 01-12.02-9.583c-7.375-7.16-13.37-15.777-17.464-25.283a78.266 78.266 0 01-6.363-30.22V79.13c.261-20.806 8.48-40.324 23.229-55.074z" fill="#000"/><path d="M106.48 125.814c-.184-.092-.429.061-.383.276.168.721-.169 1.84-.506 2.162-2.392 2.392-5.29 2.024-7.728.337a3.188 3.188 0 01-.429-.368c-.23-.23-.598.107-.383.353 1.15 1.272 2.668 1.855 4.415 1.855 1.488 0 3.113-.077 3.956-1.61.123-.215.399-.23.429.015.092.66-.598 1.012-1.042 1.365-1.84 1.457-4.738 1.426-6.792-.061-1.227-.874-2.254-1.978-2.929-3.404a.186.186 0 00-.046-.061c-1.242-1.273-2.468-2.822-3.894-3.91-4.247-3.22-13.906-8.249-24.118 2.392-.123.122-.26.245-.383.368a.2.2 0 00-.046.061c-2.484 4.17-5.09 5.719-8.417 4.983-.982-.215-1.84-.629-2.53-1.441-.184-.215.076-.522.322-.399 2.76 1.472 4.768 1.61 6.547.46.26-.169.06-.567-.23-.46-.4.153-.798.291-1.196.399-3.159.92-5.857-.828-6.103-3.818a.259.259 0 00-.414-.199c-1.471 1.088-2.161 2.805-1.916 4.875.368 3.327 2.606 8.832 5.489 9.966a.258.258 0 00.352-.199c.261-1.242.062-4.385.154-5.274.046-.491.2-.951.766-.936.537.016.721.46.736.966.016.859 0 4.385.046 5.244.046.782.2 1.487 1.212 1.487.122 0 .23-.092.26-.214.307-1.764.061-5.811.2-7.36.046-.567.214-1.089.873-1.027.552.046.69.536.69 1.012 0 1.257-.046 5.596-.03 6.853.015.782-.062 1.671.828 1.993.092.031.184.016.245-.046.675-.506.583-1.241.598-1.901.046-1.794.046-6.654.077-8.448.015-.567-.154-1.349.644-1.41.965-.092.843.782.858 1.41.015 1.993-.03 7.467-.046 9.46 0 .797.016 1.61.813 1.947.092.046.215.016.291-.061.66-.69.475-1.855.506-2.576.061-2.392.061-7.85.138-10.226.03-.721-.322-1.871.767-1.886 1.165-.031.766 1.134.766 1.84.031 2.652 0 9.352 0 12.005 0 .751-.092 1.564.813 1.87a.244.244 0 00.23-.03c.66-.43.521-1.181.537-1.84.03-2.99.045-10.012.06-13.002 0-.46 0-.935.078-1.38a.806.806 0 01.782-.72c.429-.016.69.291.735.735.062.522.062 1.058.062 1.58-.03 2.851-.108 10.027-.108 12.879 0 .843-.322 2.208.89 2.208 1.012 0 .782-1.288.797-2.101.046-2.392.03-9.107.046-11.484 0-1.119.015-2.254.03-3.373.016-.506.2-.92.767-.92.598 0 .69.46.706.951.015.46.015.935.015 1.395-.016 3.189-.046 10.564-.03 13.738 0 .782-.17 1.717.843 2.024.076.015.153.015.214-.031.72-.521.583-1.334.598-2.07.046-2.315.046-8.831.092-11.146.015-1.258.077-2.515.138-3.772.03-.491.23-.935.797-.874.414.046.644.383.66.828.03.46.03.92.03 1.395-.015 3.189-.061 10.549-.061 13.738 0 .705-.215 1.548.598 1.978a.235.235 0 00.245 0c.844-.445.752-1.334.767-2.132.03-3.051 0-10.288.077-13.339.015-.874-.507-2.437.843-2.391 1.226.046.751 1.594.751 2.499.015 3.051-.077 10.288-.077 13.339 0 .766-.199 1.686.706 2.07a.28.28 0 00.245-.016c.736-.429.598-1.211.613-1.855.092-2.576.123-9.368.169-11.944.015-1.119.015-2.254.046-3.373.015-.506.184-.935.767-.92.567.016.69.476.72.966.016.46.016.935.016 1.395-.031 3.189-.062 10.549-.093 13.738 0 .736-.107 1.549.721 1.917a.28.28 0 00.245-.016c.859-.49.644-1.395.66-2.177.076-3.25.092-10.686.153-13.937.015-.613.077-1.319.813-1.319.766.016.766.736.75 1.334l-.06 11.224c0 .797-.016 2.422.015 3.219.015.46.061 1.012.629 1.074.628.061.874-.46.95-.997.077-.521.077-1.058.077-1.579.015-2.515.015-8.954.03-11.469 0-.644-.107-1.487.798-1.502.981-.016.736.904.736 1.502.015 2.653-.016 8.801 0 11.453 0 .706-.215 1.58.644 1.948.061.03.138.03.199 0 .843-.399.782-1.227.813-1.963.076-1.855.076-7.206.153-9.061.03-.659-.322-1.733.674-1.748 1.15-.015.798 1.135.813 1.84.046 1.717-.015 6.516 0 8.249 0 .598-.168 1.303.521 1.686.062.031.123.046.2.015.966-.306.843-1.226.874-2.023.046-1.258.03-5.597.061-6.854.015-.521.307-.905.813-.905s.766.399.797.92c.03.598-.015 3.849.03 4.447.093 1.058-.367 2.223.307 3.189a.27.27 0 00.291.107c.859-.245.89-.966.951-1.64.061-.721.031-4.109.046-4.845.015-.552.077-1.12.751-1.135.721-.031.721.552.752 1.104.046.828-.138 3.894.061 5.09.031.154.199.261.353.2 3.112-1.135 5.473-6.869 5.657-10.365.108-2.346-.398-3.649-1.809-4.385z" fill="#000"/><path d="M68.057 123.238c2.837-3.189 4.692-3.725 8.755-4.661 2.024-.46 5.535-.322 6.884 0 2.944.706 7.023 1.763 9.936 5.505-2.178-4.247-7.437-6.9-12.573-7.038-6.148-.169-11.238 2.208-14.29 7.252.614-.092.905-.628 1.288-1.058zm56.285-37.058c-1.12-.43-2.009-1.18-2.883-1.962-.414-.368-.72-.874-1.349-1.058-1.181.797-1.778 2.1-2.468 3.296-3.236 5.55-4.983 11.73-6.256 18.107-.153.767-.015 1.196.797 1.58 1.748.812 2.407 2.269 2.392 4.032-.015 1.426-.491 2.699-.996 3.986-.292.767-.752 1.043-1.58.936-2.131-.292-4.277-.476-6.409-.905-6.608-1.349-12.388-3.726-17.862-7.237-.46-.291-.904-.582-1.349-.889a48.196 48.196 0 01-4.615 3.864c.521.184 1.135.49 1.81.95.199.138.413.276.613.445 4.86 3.71 17.923 6.608 16.911 7.559-.966.904-13.385-2.76-19.916-6.746a7.701 7.701 0 01-.69-.445 4.054 4.054 0 01-.322-.629c-.4.276-.813.552-1.227.828.445.23.905.46 1.35.69a110.422 110.422 0 008.6 3.818c6.364 2.499 12.849 4.232 19.565 4.431.352.015.735-.123 1.103.138-.184.675-.383 1.334-.521 2.009-.475 2.361-.122 4.676 1.135 6.914.214.368.475.721.766 1.043.184.199.46.261.706.138.26-.123.276-.399.184-.644-.138-.399-.322-.797-.476-1.181-.659-1.625-.659-3.204-.03-4.722.383-.92.874-1.794 1.456-2.606.629-.89 1.165-1.81 2.423-1.932.398-.031.736-.307.567-.752-.429-1.149.138-1.977.598-2.867 1.809-3.541 2.514-7.482 3.174-11.422.782-4.738 2.024-9.291 4.247-13.462.49-.92 1.088-1.763 1.579-2.683.613-1.15.215-2.162-1.027-2.622zm-16.16 32.029c-2.469-.444-4.891-1.104-7.299-1.932 1.304-.03 2.515.828 3.833.66-1.088-.767-2.422-.675-3.741-1.38 1.488.076 2.73.843 4.033.674-1.089-.659-2.346-.736-3.496-1.15-.751-.276-1.518-.49-2.254-.889 1.043.276 2.07.583 3.113.843.475.123.966.384 1.472.169-.905-.705-2.101-.583-3.021-1.288 1.288.307 2.591.629 3.879.92 1.395.307 2.775.659 4.232.583.521-.031 1.64-.353 1.656.95.168.307.184.614-.016.89.2.23.215.475.062.705.26.399-.046.414-.292.414a10.136 10.136 0 01-2.161-.169zm3.281 4.922c-.445.812-.706 1.702-.951 2.606-.215.828.215 1.764-.276 2.545-.368-.551-1.089-1.042-.291-1.701.23-.2.076-.629.061-.966-.061-1.212.061-2.392.429-3.511.46-1.442.522-1.472 2.392-1.396-.506.905-.95 1.656-1.364 2.423zm-.2-6.455c1.028-.843 2.055-.782 2.791.184-.905-.46-1.809.368-2.791-.184zm9.384-20.653c-.506.154-.568.629-.675 1.043-.491 1.84-.905 3.695-1.181 5.596-.551 3.833-1.134 7.666-2.545 11.254-.291.736-.536 1.503-1.088 2.116.23-1.533.674-2.99.598-4.554.26-.122.245.23.613.123 1.763-5.658 1.748-12.051 4.431-17.586.276.475-.307 1.088.368 1.518.169.123-.031.352-.521.49zm-1.15-1.257c-.43 2.423-1.457 4.692-1.901 7.145-.276 1.564-.552 3.128-.874 4.937-.798-1.027-1.411-1.901-2.254-2.591.751 1.441 2.269 2.622 1.886 4.477-.445-.031-.445-.383-.583-.613-.613-1.058-1.319-2.04-2.438-2.638-.674-.352-.766-.828-.72-1.456.628-7.053 2.759-13.508 6.531-19.303.215-.338.399-.813 1.181-.675-1.166 2.054-2.423 3.956-3.113 6.179 1.104-1.855 2.024-3.818 3.358-5.627.859.89 1.334 1.763 1.855 2.622-1.288 2.438-2.438 4.783-2.928 7.543zM79.342 108.49s0 .015 0 0c-.108-.016-.215-.062-.322-.108-1.089-.23-3.389.016-4.784.215.859.92 1.84 1.748 2.99 2.376l.092.046c1.318-.95 2.177-1.732 2.284-2.115.046-.184-.061-.322-.26-.414zm3.05-5.413c-.398-.26-1.118-.398-1.87-.49-.72-.077-1.456-.123-1.932-.169-2.223-.215-4.339.107-6.27 1.027-.92.445-1.135 1.012-.537 1.901.352.537.72 1.074 1.104 1.595.337.46.69.905 1.073 1.334 1.487-.843 2.377-1.411 3.342-2.131v-.184c-.046-.644-2.054.015-2.637-.184-.751-.261-1.257-1.212-1.763-1.871 2.239-.874 3.726-.843 4.876-.429.49.169.935.414 1.334.69.03.184.015.352-.016.521.322-.276.675-.567 1.074-.904.49-.384 1.303-.598 2.223-.706zM41.87 57.11c-6.163-3.143-9.168-8.433-9.46-15.639 3.097 3.695 6.072 7.528 10.733 9.03-1.258-1.609-3.082-2.606-4.37-4.86 3.48 1.212 6.5 2.47 9.905 2.776-7.575-3.741-12.328-9.598-12.987-18.92 8.034 10.456 17.832 17.647 30.236 20.652-3.205-2.59-6.41-5.213-9.63-7.773-3.296-2.622-6.638-5.182-9.827-8.019 8.233 4.17 16.267 8.724 24.179 13.8-1.365-1.457-2.699-2.945-4.094-4.37-1.518-1.55-3.036-3.082-4.615-4.554-1.518-1.41-3.097-2.745-4.569-4.309 3.618.813 6.96 2.5 10.38 3.94-4.554-4.124-9.675-7.16-15.348-9.122-1.993-.69-4.032-1.242-6.087-1.717a5.14 5.14 0 01-2.775-1.61c15.363.506 29.331 5.213 41.597 15.455-.95-1.901-2.3-3.465-3.665-5.014-1.487-1.702-3.05-3.312-4.783-4.722-1.671-1.365-3.358-2.653-5.106-4.032 2.3-.353 7.912 1.977 12.588 5.074 3.833 2.546 7.237 5.627 10.61 9.522-.154-1.441-.706-2.162-1.196-2.837-7.298-9.966-16.743-15.577-28.748-15.9-1.81-.045-3.557.384-5.29.844-1.87.49-3.649.123-5.52-.598 11.147-5.228 24.164-4.615 40.386 7.222-.936-2.515-3.067-4.63-9.154-9.031 1.61-.153 2.96.613 4.416.66-5.734-4.692-12.174-6.256-19.334-4.846 2.883-2.806 6.486-2.898 9.981-3.22.17-.736-.413-.874-.69-1.21-.29-.369-.812-.507-.935-1.059 3.45-.168 12.327 4.692 17.08 9.522 4.845 4.906 7.467 11.207 9.614 17.816.03-3.864-1.028-7.452-2.024-11.116 3.388 3.633 5.535 7.988 7.237 12.649-1.043-7.82-3.726-14.566-10.794-18.399a13.207 13.207 0 01-3.68-2.913c-2.683-3.02-5.857-5.443-9.215-7.559-.521-.337-1.042-.674-1.472-1.196 6.839 2.239 13.232 5.428 19.028 10.135.337-1.564-1.196-2.33-1.181-4.186 8.019 5.581 14.857 11.775 18.874 21.496.322-2.637-.552-4.615-.536-6.7 2.253 2.775 3.035 6.056 2.821 9.66.613-.123.705-.553.889-.905.138-.276.307-.552.675-1.212.429 1.948-.399 3.266-.66 4.692-.23 1.319-2.131 2.162-1.042 4.078-.307.414-1.104.307-1.672.782 1.518 1.089 2.806 2.361 3.328 4.416-.982.353-1.626-1.073-2.76-.445.628 1.104-3.711 7.59-12.22 7.59.015-1.395.874-2.622.721-4.17-.721.03-1.089 1.18-2.086.766-.536-.46.568-1.043.108-1.671-.368-.399-.828.521-1.273-.2 0-1.395.583-2.928.169-4.645-.92.49-1.181 1.502-1.702 2.238-1.717 2.438-3.879 3.757-6.838 3.343-1.564-.215-3.128-.123-4.585.583-2.33 1.134-4.584.766-6.715-.506-.981-.583-1.779-.66-2.806-.17-1.625.767-3.342 1.335-5.09 1.795-2.33.613-4.6.72-6.808-.46-.613-.322-1.196-.629-1.993-.43-6.976 1.718-13.584.537-19.825-3.081-.199-.123-.398-.246-.69-.062.721 1.687 2.224 2.637 3.573 4.079-1.273.72-2.53.199-3.665.414-.52.843-9.735-1.457-9.613-1.64z" fill="#000"/><path d="M79.343 108.489a1.603 1.603 0 00-.322-.108.73.73 0 00.322.108c0 .015 0 0 0 0zm-.23-4.309c-.414-.276-.843-.521-1.334-.69a73.313 73.313 0 01-3.112 2.3c.582.199 2.591-.445 2.637.184v.184a51.282 51.282 0 001.794-1.457c.03-.153.046-.321.015-.521zm9.169-.72c-1.932-.92-4.048-1.242-6.271-1.028-.368.031-.92.092-1.487.169-.936.123-1.947.322-2.423.644-.107.092-.214.169-.322.261a74.163 74.163 0 01-3.112 2.299c-.583.399-1.18.798-1.763 1.166-5.382 3.419-11.27 5.887-17.862 7.221-2.132.429-4.263.613-6.41.905-.843.107-1.287-.169-1.578-.936-.491-1.287-.966-2.56-.997-3.986-.015-1.763.644-3.22 2.376-4.032.813-.384.951-.813.798-1.58-1.273-6.362-3.005-12.541-6.256-18.107-.69-1.18-1.272-2.5-2.453-3.296-.644.184-.95.69-1.365 1.058-.873.797-1.747 1.533-2.882 1.962-1.242.475-1.64 1.472-1.043 2.607.491.92 1.089 1.763 1.58 2.683 2.223 4.17 3.465 8.724 4.247 13.461.659 3.941 1.364 7.881 3.173 11.423.46.889 1.028 1.733.598 2.867-.168.46.169.721.568.751 1.272.123 1.809 1.043 2.422 1.932a13.618 13.618 0 011.457 2.607c.628 1.502.628 3.097-.031 4.722-.153.399-.337.782-.475 1.181-.092.245-.062.521.184.644a.61.61 0 00.705-.138c.291-.322.552-.66.767-1.043 1.257-2.223 1.61-4.538 1.134-6.915-.138-.674-.337-1.334-.521-2.008.368-.276.736-.138 1.104-.138 6.715-.2 13.2-1.932 19.564-4.431 2.913-1.15 5.78-2.408 8.601-3.818.291-.153.598-.291.89-.445a74.303 74.303 0 002.192-1.15c.061-.03.138-.076.2-.107 1.717-.981 3.02-2.376 4.154-3.925.384-.521.736-1.043 1.104-1.579.567-.905.368-1.472-.567-1.901zM40.047 84.616c1.318 1.81 2.238 3.787 3.357 5.627-.69-2.223-1.962-4.124-3.112-6.179.782-.138.966.338 1.18.675 3.772 5.795 5.904 12.25 6.532 19.303.061.629-.046 1.104-.72 1.457-1.12.582-1.825 1.579-2.438 2.637-.138.23-.138.583-.583.613-.399-1.855 1.135-3.036 1.886-4.477-.843.69-1.457 1.564-2.254 2.591-.322-1.824-.598-3.388-.874-4.937-.444-2.453-1.472-4.722-1.901-7.145-.49-2.744-1.656-5.105-2.928-7.528.52-.874.996-1.763 1.855-2.637zm4.293 29.315c-1.396-3.587-1.978-7.42-2.53-11.253-.276-1.902-.69-3.757-1.18-5.597-.108-.414-.17-.904-.675-1.042-.476-.138-.675-.368-.522-.475.675-.43.108-1.043.368-1.518 2.683 5.534 2.668 11.928 4.431 17.586.368.107.353-.246.614-.123-.092 1.564.368 3.02.598 4.554-.568-.629-.813-1.396-1.104-2.132zm2.207 2.929c.752-.966 1.764-1.027 2.791-.184-.981.552-1.886-.276-2.79.184zm3.818 11.438c-.475-.782-.046-1.717-.26-2.545-.246-.905-.506-1.794-.951-2.607-.414-.766-.859-1.518-1.38-2.407 1.886-.077 1.932-.046 2.392 1.395.368 1.135.475 2.3.43 3.511-.016.338-.17.767.06.966.798.629.077 1.12-.29 1.687zm-.076-9.92c-.246 0-.552-.015-.292-.414-.153-.23-.138-.475.062-.705-.2-.276-.184-.583-.016-.89.016-1.288 1.12-.966 1.656-.95 1.441.076 2.821-.276 4.217-.583 1.303-.291 2.59-.613 3.879-.92-1.028.598-1.825.859-3.02 1.288.566 0 3.54-.736 4.568-1.012-.736.399-3.465 1.487-5.75 2.039 1.58-.276 2.546-.598 4.033-.674-1.41.613-2.5.782-3.741 1.38 1.303-.246 2.53-.675 3.833-.66-2.407.828-4.83 1.488-7.298 1.932a10.02 10.02 0 01-2.131.169zm36.092-12.327a48.208 48.208 0 01-4.615 3.863c-.506.384-1.043.767-1.595 1.15-.399.276-.813.552-1.226.828-5.367 3.527-12.726 7.022-21.128 7.712-1.886 0 2.238-.935 6.746-2.115 4.078-1.074 9.66-4.232 12.741-6.471 1.319-.95 2.177-1.732 2.284-2.115.047-.184-.045-.322-.26-.414a1.603 1.603 0 00-.322-.108c-1.089-.23-3.388.016-4.784.215-.092-.107-.184-.199-.276-.307 1.487-.843 2.377-1.41 3.343-2.131a51.375 51.375 0 001.794-1.457c.322-.276.674-.567 1.073-.904.49-.414 1.303-.629 2.223-.721 2.53-.26 5.903.414 5.903.844 0 .138-.66.95-1.901 2.131zm-7.268-1.871c-.414-.276-.843-.521-1.334-.69a73.313 73.313 0 01-3.112 2.3c.582.199 2.591-.445 2.637.184v.184a51.282 51.282 0 001.794-1.457c.03-.153.046-.321.015-.521zm.23 4.309a1.603 1.603 0 00-.322-.108.73.73 0 00.322.108c0 .015 0 0 0 0zM47.59 78.545c0 .996.092 1.288.338 1.288.092 0 .122-.031.122-.23v-.629h.246l.306 1.978c-.368 0-.89.215-1.073.398a3.53 3.53 0 00-.583-.168 3.957 3.957 0 00-.705-.077c-.399 0-.981.092-1.196.23-.123-.168-.736-.444-1.012-.444l.368-2.1h.245v.628c0 .168.031.322.215.322.123 0 .184-.046.184-.399v-4.37c0-1.15-.215-1.84-.583-2.223.123-.076.215-.138.276-.215.062-.076.093-.138.093-.214 0-.169-.123-.322-.43-.49.613-.369.644-1.212.644-2.715V65.19c0-.322-.061-.352-.153-.352-.123 0-.184.046-.184.368v.659h-.245l-.307-2.146c.368.045.89-.123 1.012-.322.061.046.214.122.398.168.184.046.43.077.614.077.429 0 .797-.046 1.165-.092.337-.046.736-.138 1.441-.138 1.319 0 3.235.674 3.235 2.422v4.37c0 1.334-.582 1.794-1.502 2.177.705.307 1.502.797 1.502 1.917v5.213c0 .214.062.322.184.322.092 0 .154-.046.154-.184v-.675h.245l.307 1.932c-.276 0-.798.23-.92.414-.062-.046-.215-.092-.368-.123-.154-.03-.307-.03-.43-.03-.245 0-.613.03-.828.138-.092-.276-.52-.63-.858-.63v-6.638c0-.859-.337-.997-1.012-.997-.644 0-.89.17-.89.982v4.523h-.015zm0-7.498c0 .66.276.844.92.844.675 0 .982-.184.982-1.12V65.59c0-.72-.522-.905-1.012-.905-.552 0-.89.307-.89.89v5.473zm9.015 8.433c0 .567.245.72.889.72.582 0 .766-.168.766-1.195v-1.687c0-.537-.03-.996-.214-1.288.828-.26 1.073-.46 1.073-1.916h.215c0 1.548.214 1.655 1.073 1.962-.215.215-.337.66-.337 1.242v2.085c0 1.15.061 1.288.276 1.472-.246.046-.736.26-.828.399-.154-.046-.276-.092-.43-.123a2.431 2.431 0 00-.49-.046c-.399 0-.644.077-.859.123-.245.046-.49.123-.95.123-.368 0-.675-.093-.982-.138a7.13 7.13 0 00-1.042-.092c-.276 0-.552.076-.767.23-.123-.215-.613-.445-.92-.491l.276-2.1h.276v.75c0 .277.03.369.184.369.153 0 .215-.092.215-.353v-4.477c0-1.518-.338-2.085-.552-2.315.214-.092.368-.307.368-.46 0-.138-.154-.322-.368-.46.276-.215.552-.797.552-1.87v-4.83c0-.184-.03-.261-.154-.261-.153 0-.214.077-.245.26v.767h-.245l-.276-2.008c.398-.03.736-.184.95-.414.123.076.276.122.491.168.215.046.49.077.736.077.49 0 .828-.077 1.104-.138a2.46 2.46 0 01.705-.092c.368 0 .614.046.859.092s.49.138.858.138c.215 0 .522-.123.736-.23.092.184.491.399.798.414-.184.123-.276.445-.276 1.12v2.238c0 .613.03.996.214 1.257-.858.276-1.012.583-1.012 1.917h-.245c0-1.288-.215-1.641-1.073-1.917.214-.215.306-.506.306-1.288v-1.426c0-.812-.245-1.165-.828-1.165-.52 0-.828.26-.828 1.196v4.646c0 1.027.215 1.119.553 1.119.214 0 .368-.215.368-.353 0-.184-.062-.26-.123-.368a1.306 1.306 0 01-.123-.521c0-.368.521-.66.797-.629a.562.562 0 00-.122.368c0 .138.122.276.43.522.152.122.367.398.367.628 0 .26-.153.49-.49.66l.674.444-.705.399c.306.184.521.414.521.751 0 .276-.153.46-.368.66-.399.275-.583.413-.583.582a.57.57 0 00.184.399c-.367.046-.766-.184-.766-.614 0-.23.092-.444.184-.613a.72.72 0 00.123-.445c0-.214-.246-.352-.43-.352-.49 0-.49.306-.49 1.61v4.768zm9.29.169c0 .214.122.276.276.276.153 0 .184-.123.184-.261v-.629h.276l.214 1.87c-.306 0-.736.23-.89.445-.122-.091-.367-.137-.612-.183a5.44 5.44 0 00-.706-.046c-.398 0-.95.076-1.196.23-.122-.215-.736-.415-1.042-.415l.368-1.84h.245v.614c0 .184.092.26.215.26s.123-.137.123-.26v-5.152c0-.889-.215-1.426-.491-1.61.184-.092.306-.276.306-.444 0-.169-.122-.353-.337-.46.276-.215.521-.629.521-1.687v-5.182c0-.414-.153-.537-.429-.537-.306 0-.49.123-.49.537v2.147c0 .889.092 1.027.276 1.257-.86.26-1.074.567-1.074 1.962h-.214c0-1.242-.184-1.686-1.043-1.962.153-.123.368-.46.368-1.257v-3.45c.307 0 .736-.215.89-.414.091.076.214.122.367.168.154.046.307.077.46.077.307 0 .644-.123.797-.23.123.077.307.123.522.169.214.046.49.076.766.076.706 0 1.227-.092 1.442-.23.092.046.214.123.337.17.153.045.307.076.46.076.306 0 .674-.092.828-.23.153.214.582.414.89.414v3.45c0 .797.214 1.15.367 1.257-.859.276-1.043.72-1.043 1.962h-.214c0-1.395-.215-1.702-1.073-1.962.183-.23.275-.368.275-1.257V65.22c0-.414-.183-.537-.49-.537-.276 0-.43.123-.43.537v5.182c0 1.058.277 1.518.46 1.656-.183.077-.337.276-.337.445 0 .184.123.368.338.444-.276.138-.46.614-.46 1.656v5.045zm6.455-1.104c0 .996.092 1.288.337 1.288.092 0 .123-.031.123-.23v-.629h.245l.307 1.978c-.368 0-.89.215-1.073.398a3.525 3.525 0 00-.583-.168 3.957 3.957 0 00-.705-.077c-.399 0-.982.092-1.196.23-.123-.168-.736-.444-1.012-.444l.368-2.1h.245v.628c0 .168.03.322.215.322.123 0 .184-.046.184-.399v-4.37c0-1.15-.215-1.84-.583-2.223a1.08 1.08 0 00.276-.215c.062-.076.092-.138.092-.214 0-.169-.122-.322-.43-.49.614-.369.645-1.212.645-2.715V65.19c0-.322-.061-.352-.153-.352-.123 0-.184.046-.184.368v.659h-.246l-.306-2.146c.368.045.889-.123 1.012-.322.06.046.214.122.398.168.184.046.43.077.614.077.429 0 .797-.046 1.165-.092.337-.046.736-.138 1.441-.138 1.319 0 3.235.674 3.235 2.422v4.37c0 1.334-.583 1.794-1.503 2.177.706.307 1.503.797 1.503 1.917v5.213c0 .214.061.322.184.322.092 0 .153-.046.153-.184v-.675h.246l.306 1.932c-.276 0-.797.23-.92.414-.06-.046-.214-.092-.368-.123-.153-.03-.306-.03-.429-.03-.245 0-.613.03-.828.138-.092-.276-.521-.63-.858-.63v-6.638c0-.859-.338-.997-1.012-.997-.644 0-.89.17-.89.982v4.523h-.015zm0-7.498c0 .66.276.844.92.844.675 0 .981-.184.981-1.12V65.59c0-.72-.521-.905-1.012-.905-.552 0-.889.307-.889.89v5.473zm6.087-5.274c0-1.288 1.226-2.33 2.56-2.33.061.076.215.122.368.168.184.046.43.077.644.077.46 0 .859-.092.981-.23.706 0 2.469.398 2.469 2.054v4.247c0 1.564.215 1.733.552 1.978-.245.123-.399.353-.399.521 0 .17.092.322.399.46-.307.215-.552.721-.552 2.055v3.695c0 2.147-1.748 2.913-2.56 2.898a.605.605 0 00-.369-.184c-.183-.046-.368-.046-.582-.046-.43 0-.767.03-.92.23-.797.03-2.591-.675-2.591-2.055V74.39c0-.951-.307-1.334-.552-1.564.245-.123.398-.276.398-.445 0-.169-.153-.353-.398-.445.306-.23.552-.49.552-1.778v-4.385zm2.652 4.186c0 1.349.246 1.656.49 1.84-.275.122-.398.322-.398.52 0 .185.123.369.399.537-.368.261-.49.982-.49 2.132v4.323c0 .66.275.89.858.89.552 0 .858-.184.858-.89v-4.43c0-1.55-.245-1.871-.52-2.086.214-.123.398-.307.398-.46 0-.168-.154-.368-.399-.49.43-.276.521-.951.521-1.84v-4.646c0-.537-.184-.797-.828-.797-.643 0-.889.23-.889.812v4.585zm11.76 9.751c0 .184.091.307.214.307s.215-.138.245-.261l.062-.813h.214v2.024c-.276 0-.613.138-.705.368-.123-.092-.276-.138-.46-.184a3.284 3.284 0 00-.521-.046c-.307 0-.613.077-.859.23-.092-.23-.49-.414-.705-.414l.184-1.932h.215v.72c0 .17.06.262.245.262.184 0 .215-.17.215-.261l.46-5.09c.122-1.196-.123-1.564-.338-1.825.154-.092.338-.276.338-.46 0-.169-.123-.353-.307-.49.337-.276.644-.583.797-2.101l.675-5.903c.276-.046.46-.184.521-.399.092.077.307.123.521.169.246.046.522.077.706.077.429 0 .981-.092 1.165-.23.092.23.276.352.49.398l.644 5.903c.184 1.825.46 1.886.829 2.1-.276.123-.4.323-.4.46 0 .17.154.4.4.491-.215.215-.43.813-.338 1.84l.49 5.045c0 .184.093.306.246.306.123 0 .215-.168.215-.276v-.72h.245l.276 1.931c-.245 0-.583.184-.644.414-.123-.091-.368-.137-.582-.183a5.812 5.812 0 00-.706-.046c-.43 0-.981.076-1.257.23-.092-.23-.583-.4-.89-.4l-.06-1.916h.214l.092.752c.03.092.092.214.215.214.122 0 .153-.168.122-.322l-.214-2.36c-.062-.23-.246-.492-.583-.492h-.981c-.307 0-.49.23-.49.491l-.215 2.392zm.95-9.061c0 .46.123 1.058.276 1.195-.153.123-.276.261-.276.491 0 .215.061.368.245.46-.245.184-.552.905-.613 1.518-.03.613.153.797.644.797.552 0 .736-.168.675-.797-.062-.675-.368-1.288-.552-1.518.184-.138.276-.276.245-.46 0-.184-.092-.353-.276-.49.153-.138.184-.905.184-1.197l-.123-2.269c0-.23-.06-.322-.153-.322-.092 0-.123.092-.123.322l-.153 2.27zm8.709 7.896c0 .996.092 1.288.338 1.288.092 0 .122-.031.122-.23v-.629h.246l.306 1.978c-.368 0-.889.215-1.073.398a3.523 3.523 0 00-.583-.168 3.948 3.948 0 00-.705-.077c-.399 0-.981.092-1.196.23-.123-.168-.736-.444-1.012-.444l.368-2.1h.245v.628c0 .168.031.322.215.322.123 0 .184-.046.184-.399v-4.37c0-1.15-.214-1.84-.582-2.223a1.08 1.08 0 00.275-.215c.062-.076.092-.138.092-.214 0-.169-.122-.322-.429-.49.613-.369.644-1.212.644-2.715V65.19c0-.322-.061-.352-.153-.352-.123 0-.184.046-.184.368v.659h-.246l-.306-2.146c.368.045.89-.123 1.012-.322.061.046.214.122.398.168.184.046.43.077.614.077.429 0 .797-.046 1.165-.092.337-.046.736-.138 1.441-.138 1.319 0 3.235.674 3.235 2.422v4.37c0 1.334-.582 1.794-1.502 2.177.705.307 1.502.797 1.502 1.917v5.213c0 .214.062.322.184.322.092 0 .154-.046.154-.184v-.675h.245l.307 1.932c-.276 0-.798.23-.92.414-.062-.046-.215-.092-.368-.123-.154-.03-.307-.03-.43-.03-.245 0-.613.03-.828.138-.092-.276-.521-.63-.858-.63v-6.638c0-.859-.338-.997-1.012-.997-.644 0-.889.17-.889.982v4.523h-.016zm0-7.498c0 .66.276.844.92.844.675 0 .981-.184.981-1.12V65.59c0-.72-.521-.905-1.011-.905-.552 0-.89.307-.89.89v5.473zm10.642 8.602c0 .214.123.276.276.276.154 0 .184-.123.184-.261v-.629h.276l.215 1.87c-.307 0-.736.23-.889.445-.123-.091-.368-.137-.613-.183a5.452 5.452 0 00-.706-.046c-.398 0-.95.076-1.196.23-.122-.215-.736-.415-1.042-.415l.368-1.84h.245v.614c0 .184.092.26.215.26.122 0 .122-.137.122-.26v-5.152c0-.889-.214-1.426-.49-1.61.184-.092.306-.276.306-.444 0-.169-.122-.353-.337-.46.276-.215.521-.629.521-1.687v-5.182c0-.414-.153-.537-.429-.537-.307 0-.491.123-.491.537v2.147c0 .889.092 1.027.276 1.257-.858.26-1.073.567-1.073 1.962h-.215c0-1.242-.184-1.686-1.042-1.962.153-.123.368-.46.368-1.257v-3.45c.306 0 .736-.215.889-.414.092.076.215.122.368.168.153.046.307.077.46.077.307 0 .644-.123.797-.23.123.077.307.123.522.169a3.8 3.8 0 00.766.076c.706 0 1.227-.092 1.441-.23.092.046.215.123.338.17a1.6 1.6 0 00.46.076c.306 0 .674-.092.828-.23.153.214.582.414.889.414v3.45c0 .797.215 1.15.368 1.257-.859.276-1.043.72-1.043 1.962h-.199c0-1.395-.215-1.702-1.073-1.962.184-.23.276-.368.276-1.257V65.22c0-.414-.184-.537-.491-.537-.276 0-.429.123-.429.537v5.182c0 1.058.276 1.518.46 1.656-.184.077-.338.276-.338.445 0 .184.123.368.338.444-.276.138-.46.614-.46 1.656v5.045h-.016z" fill="#000"/><path d="M59.486 118.868c2.745-.659 5.459-1.41 8.172-2.146-2.667.997-5.381 1.809-8.172 2.146zm14.734-10.272c-.674.092-1.118.169-1.118.169.306-.169.582-.322.843-.476.092.108.184.215.276.307zm-28.671-22.86c5.765-.322 11.53-.491 17.295-.598 5.765-.108 11.53-.169 17.279-.169 5.765 0 11.53.061 17.28.169 5.764.107 11.529.276 17.294.598-5.765.322-11.53.49-17.294.597-5.765.108-11.53.17-17.28.17-5.765 0-11.53-.062-17.28-.17-5.764-.107-11.53-.275-17.294-.597zm11.93 3.219v7.973H55.24v-5.55l-1.548 5.55h-1.288l-1.595-5.458v5.458h-.782v-7.973h2.346l1.365 4.815 1.364-4.815h2.377zm5.365 5.811l.858.245c-.091 1.365-.889 2.04-2.407 2.04-1.962 0-2.943-.981-2.943-2.944 0-.95.26-1.733.782-2.33.52-.614 1.195-.905 2.008-.905 1.702 0 2.545 1.104 2.545 3.296h-3.112c0 1.549.398 2.315 1.18 2.315.736 0 1.104-.429 1.104-1.303 0-.123 0-.26-.015-.414zM60.59 93.51h1.273c0-1.365-.2-2.055-.614-2.055-.368 0-.582.506-.628 1.518l-.03.537zm9.46 3.418h-2.13v-4.324c0-.444-.124-.659-.369-.659s-.46.169-.644.521c-.184.353-.276.767-.276 1.242v3.22H64.5v-5.903c.736 0 1.441-.046 2.131-.153v1.104c.537-.736 1.18-1.104 1.932-1.104.997 0 1.487.506 1.487 1.502v4.554zm1.334-4.446v-.736c.337-.2.567-.506.674-.89-.628 0-.935-.337-.935-.996 0-.69.337-1.027 1.027-1.027.675 0 1.012.414 1.012 1.226 0 1.258-.582 2.07-1.778 2.423zm7.406.061l-1.028.184c0-.874-.414-1.319-1.227-1.319-.506 0-.751.2-.751.614 0 .306.43.628 1.303.98 1.319.538 1.993 1.227 1.993 2.055 0 1.334-.843 1.994-2.53 1.994-1.778 0-2.667-.66-2.667-1.994l1.104-.214c-.016.122-.03.245-.03.368 0 .337.137.644.428.889.292.26.629.383 1.012.383.522 0 .767-.214.767-.659 0-.291-.414-.613-1.242-.966-1.257-.537-1.87-1.227-1.87-2.07 0-.552.245-1.012.72-1.364.475-.353 1.089-.537 1.84-.537 1.319 0 2.055.552 2.177 1.656zm9.768-1.365l-1.074.2c.046-.215.077-.399.077-.537 0-.92-.567-1.395-1.687-1.395-.889 0-1.334.322-1.334.95 0 .476.491.89 1.488 1.227 1.916.66 2.867 1.625 2.867 2.913 0 .751-.276 1.365-.813 1.825-.536.46-1.257.69-2.146.69-1.978 0-2.96-.767-2.96-2.3 0-.123.016-.276.031-.46l1.12-.245a3.328 3.328 0 00-.123.889c0 .996.567 1.487 1.702 1.487.904 0 1.364-.352 1.364-1.073 0-.537-.536-.997-1.625-1.395-1.564-.583-2.361-1.503-2.361-2.76 0-.72.26-1.288.782-1.733.521-.444 1.211-.659 2.07-.659 1.748.015 2.621.797 2.621 2.376zm7.082 5.535c-.521.2-1.027.307-1.518.307-.736 0-1.18-.23-1.35-.69-.352.475-.858.705-1.532.705-1.242 0-1.87-.582-1.87-1.732 0-.874.566-1.487 1.701-1.84 1.043-.322 1.564-.72 1.564-1.18 0-.599-.307-.905-.905-.905-.69 0-1.042.291-1.042.874 0 .184.061.429.168.72l-1.058-.199a3.137 3.137 0 01-.046-.521c0-.936.86-1.396 2.56-1.396 1.626 0 2.423.43 2.423 1.304v3.572c0 .368.123.552.353.552.077 0 .184-.046.322-.123l.23.552zm-3.02-3.327a2.18 2.18 0 01-.46.383c-.445.261-.66.69-.66 1.304 0 .782.154 1.165.46 1.165.445 0 .66-.383.66-1.15v-1.702zm5.398-4.553v8.095h-2.131v-7.973c.598 0 1.303-.046 2.13-.122zm3.709 2.054c1.948 0 2.913 1.027 2.913 3.082 0 2.054-.965 3.082-2.913 3.082-1.947 0-2.928-1.028-2.928-3.082 0-2.055.981-3.082 2.928-3.082zm-.015.521c-.475 0-.705.859-.705 2.56 0 1.703.23 2.561.705 2.561s.705-.858.705-2.56c.016-1.718-.23-2.56-.705-2.56zm9.276 5.52h-2.131v-4.324c0-.444-.123-.659-.368-.659-.246 0-.46.169-.644.521-.184.353-.276.767-.276 1.242v3.22h-2.131v-5.903c.735 0 1.441-.046 2.131-.153v1.104c.536-.736 1.18-1.104 1.932-1.104.996 0 1.487.506 1.487 1.502v4.554z" fill="#000"/></svg>